<svg xmlns="http://www.w3.org/2000/svg" xmlns:xlink="http://www.w3.org/1999/xlink" id="Layer_2" data-name="Layer 2" viewBox="0 0 1569.67 438.2"><defs><style>      .cls-1 {        fill: none;      }      .cls-2 {        fill: #1a365d;      }      .cls-3 {        fill: #445278;      }      .cls-4 {        fill: url(#radial-gradient-2);      }      .cls-5 {        fill: url(#linear-gradient-3);      }      .cls-6 {        fill: url(#linear-gradient-2);      }      .cls-7 {        fill: url(#radial-gradient);      }      .cls-8 {        fill: url(#linear-gradient);      }      .cls-9 {        fill: #daa520;      }      .cls-10 {        clip-path: url(#clippath);      }    </style><clipPath id="clippath"><path class="cls-1" d="M.01,219.06c-1.09,100.47,70.46,161.3,82.29,171,55.28,45.33,115.36,47.56,136.76,48.03,22.87.5,77.12.92,128.95-35.81,56.57-40.1,92.22-111.67,90.1-183.21C434.58,100.07,327.18,1.91,219.06.03,134.55-1.45,75.89,56.86,66.22,66.76,51.71,81.64.92,135.29.01,219.06Z"></path></clipPath><radialGradient id="radial-gradient" cx="839.53" cy="705.13" fx="757.74" fy="539.08" r="247.69" gradientTransform="translate(949.63 -420.26) rotate(-180) scale(.87 -.91)" gradientUnits="userSpaceOnUse"><stop offset="0" stop-color="#e8e8e6"></stop><stop offset="0" stop-color="#eff0f1"></stop><stop offset=".18" stop-color="#e9e9e8"></stop><stop offset=".43" stop-color="#e6e5e4"></stop><stop offset=".72" stop-color="#d6d7d7"></stop><stop offset="1" stop-color="#cccecf"></stop></radialGradient><linearGradient id="linear-gradient" x1="1073.14" y1="57.34" x2="1267.77" y2="19.02" gradientTransform="translate(1114.61 -449.61) rotate(148.86) scale(1 -1)" gradientUnits="userSpaceOnUse"><stop offset="0" stop-color="#cf0024"></stop><stop offset="1" stop-color="#191970"></stop></linearGradient><radialGradient id="radial-gradient-2" cx="852.49" cy="790.85" fx="852.49" fy="657.28" r="152.81" gradientTransform="translate(-731.95 622.32) rotate(-63.67) scale(.9 .88) skewX(-1.87)" gradientUnits="userSpaceOnUse"><stop offset=".4" stop-color="#e5575e"></stop><stop offset=".46" stop-color="#dd5661"></stop><stop offset=".55" stop-color="#c85569"></stop><stop offset=".67" stop-color="#a65278"></stop><stop offset=".8" stop-color="#764f8b"></stop><stop offset=".94" stop-color="#3a4ba4"></stop><stop offset=".97" stop-color="#2e4baa"></stop></radialGradient><linearGradient id="linear-gradient-2" x1="1151.98" y1="284.45" x2="1468.69" y2="284.45" gradientTransform="translate(1590.72) rotate(-180) scale(1 -1)" gradientUnits="userSpaceOnUse"><stop offset=".56" stop-color="#9b1f2d"></stop><stop offset=".84" stop-color="#bb1e2d"></stop><stop offset=".86" stop-color="#b21d30"></stop><stop offset=".89" stop-color="#991c3a"></stop><stop offset=".93" stop-color="#721b4b"></stop><stop offset=".97" stop-color="#3b1a61"></stop><stop offset="1" stop-color="#191970"></stop></linearGradient><linearGradient id="linear-gradient-3" x1="912.72" y1="180.07" x2="1247.05" y2="-60.98" gradientTransform="translate(-341.76 1149.84) rotate(-62.72)" gradientUnits="userSpaceOnUse"><stop offset=".11" stop-color="#1a365d"></stop><stop offset=".21" stop-color="#1c3867"></stop><stop offset=".38" stop-color="#244085"></stop><stop offset=".55" stop-color="#2e4baa"></stop><stop offset=".61" stop-color="#344ea4"></stop><stop offset=".68" stop-color="#485895"></stop><stop offset=".77" stop-color="#67697b"></stop><stop offset=".87" stop-color="#938058"></stop><stop offset=".97" stop-color="#ca9d2c"></stop><stop offset="1" stop-color="#daa520"></stop></linearGradient></defs><g id="Layer_1-2" data-name="Layer 1"><g><g><g><path class="cls-2" d="M559.82,46.46h0s-36.28,9.72-36.28,9.72h0l-39.08,10.47,5.97,22.29c1.43,5.33,6.91,8.5,12.25,7.07l20.86-5.59v170.8c0,5.52,4.48,10,10,10h26.28V46.46s0,0,0,0Z"></path><path class="cls-2" d="M710.73,274.42c-16.27,0-31.31-2.95-45.11-8.83-13.81-5.89-25.85-14.13-36.12-24.73-10.28-10.6-18.2-22.9-23.76-36.92-5.57-14.02-8.35-29.06-8.35-45.11s2.78-31.09,8.35-45.11c5.56-14.02,13.48-26.27,23.76-36.76,10.27-10.48,22.31-18.73,36.12-24.72,13.81-5.99,28.84-8.99,45.11-8.99,18.19,0,33.92,3,47.2,8.99,13.27,5.99,25.05,14.13,35.32,24.4l-18.15,18.15c-3.64,3.64-9.48,3.94-13.43.64-5.21-4.35-11.11-7.94-17.7-10.76-9.53-4.06-20.61-6.1-33.23-6.1-11.13,0-21.3,1.93-30.5,5.78-9.21,3.85-17.18,9.37-23.92,16.54-6.74,7.17-11.94,15.68-15.57,25.52-3.64,9.85-5.46,20.66-5.46,32.43s1.82,22.59,5.46,32.43c3.64,9.85,8.83,18.36,15.57,25.53,6.74,7.17,14.72,12.68,23.92,16.54,9.2,3.85,19.37,5.78,30.5,5.78,13.7,0,25.31-2.09,34.84-6.26,6.59-2.89,12.49-6.52,17.7-10.89,3.96-3.32,9.8-3.03,13.45.62l18.14,18.14c-10.28,10.49-22.37,18.73-36.29,24.72-13.91,5.99-29.86,8.99-47.84,8.99Z"></path><path class="cls-2" d="M931.54,178.42c-.58-3.39-1.73-7.67-4.08-12.2-1.22-2.35-3.48-6.6-8.03-10.69-1.71-1.54-3.58-2.9-5.61-4.08-5.89-3.42-13.12-5.14-21.67-5.14-8.99,0-16.81,1.92-23.44,5.78-6.64,3.85-11.78,9.26-15.41,16.21-3.65,6.96-5.46,15.25-5.46,24.88s1.93,18.09,5.78,25.37c3.85,7.28,9.31,12.9,16.37,16.86,7.06,3.96,15.19,5.94,24.4,5.94,7.92,0,15.25-1.39,21.99-4.17,3.94-1.62,7.52-3.68,10.76-6.18,3.98-3.07,9.58-2.81,13.11.76l15.78,16.01c-7.49,8.78-16.59,15.41-27.29,19.91-10.7,4.49-22.05,6.74-34.03,6.74-15.41,0-29.27-3.48-41.58-10.44-12.31-6.95-22.05-16.54-29.22-28.74-7.18-12.2-10.76-25.9-10.76-41.1s3.53-28.84,10.6-40.94c7.06-12.09,16.64-21.67,28.74-28.74,12.09-7.06,25.52-10.6,40.29-10.6s27.02,3.32,38.05,9.95c11.02,6.64,19.69,15.73,26.01,27.29,6.31,11.56,9.47,24.73,9.47,39.49,0,2.57-.16,5.19-.48,7.87-.32,2.68-.81,5.62-1.45,8.83-38.41-.38-76.82-.75-115.23-1.13-.72-3.53-1.31-7.93-1.32-13,0-5.68.73-10.56,1.58-14.37l82.14-.4Z"></path><path class="cls-2" d="M994.56,261.21V40.03h35.32v231.18h-25.32c-5.52,0-10-4.48-10-10Z"></path><path class="cls-2" d="M1069.05,261.21V40.03h35.32v231.18h-25.32c-5.52,0-10-4.48-10-10Z"></path><g><path class="cls-9" d="M1476.34,87.56c-6.85,0-12.47-2.3-16.86-6.9-4.39-4.6-6.58-10.22-6.58-16.86s2.19-12.52,6.58-17.02c4.39-4.5,10-6.74,16.86-6.74s12.46,2.25,16.85,6.74c4.39,4.49,6.58,10.17,6.58,17.02s-2.2,12.25-6.58,16.86c-4.39,4.6-10.01,6.9-16.85,6.9Z"></path><circle class="cls-2" cx="1476.34" cy="63.8" r="11.01"></circle></g><g><path class="cls-2" d="M1170.51,274.42c-6.85,0-12.47-2.3-16.86-6.9-4.39-4.6-6.58-10.22-6.58-16.86s2.19-12.52,6.58-17.02c4.39-4.5,10-6.74,16.86-6.74s12.46,2.25,16.85,6.74c4.39,4.49,6.58,10.17,6.58,17.02s-2.2,12.25-6.58,16.86c-4.39,4.6-10.01,6.9-16.85,6.9Z"></path><circle class="cls-9" cx="1170.51" cy="250.66" r="11.01"></circle></g><path class="cls-9" d="M1340.04,48.38h-21.84l-91.51,222.83h25.66c4.09,0,7.76-2.49,9.28-6.28l17.67-44.13h98.75l17.59,44.11c1.52,3.8,5.2,6.3,9.29,6.3h25.97l-90.87-222.83ZM1289.85,194.47l38.94-97.27,38.78,97.27h-77.72Z"></path><path class="cls-9" d="M1476.34,97.2c-5.53,0-10.4-1.23-14.61-3.68v165.95c0,6.48,4.48,11.73,10,11.73h19.22V93.53c-4.22,2.45-9.08,3.68-14.61,3.68Z"></path></g><g><path class="cls-3" d="M523.51,383.47l19.79-48.18h4.72l19.65,48.18h-7.08l-16.25-40.75h2.5l-16.31,40.75h-7.01ZM532.95,372.57v-5.69h25.34v5.69h-25.34Z"></path><path class="cls-3" d="M577.52,343.9c-1.16,0-2.11-.38-2.85-1.15-.74-.76-1.11-1.72-1.11-2.88s.37-2.05,1.11-2.81c.74-.76,1.69-1.15,2.85-1.15s2.11.38,2.85,1.15,1.11,1.7,1.11,2.81-.37,2.12-1.11,2.88-1.69,1.15-2.85,1.15ZM574.33,383.47v-32.98h6.32v32.98h-6.32Z"></path><path class="cls-3" d="M589.88,368.82v-5.97h22.84v5.97h-22.84Z"></path><path class="cls-3" d="M623,383.47v-48.18h6.53v48.18h-6.53ZM627.37,364.73v-5.69h13.12c1.81,0,3.41-.37,4.82-1.11,1.41-.74,2.52-1.78,3.33-3.12.81-1.34,1.21-2.94,1.21-4.79s-.41-3.45-1.21-4.79c-.81-1.34-1.92-2.38-3.33-3.12-1.41-.74-3.02-1.11-4.82-1.11h-13.12v-5.69h13.47c2.96,0,5.62.6,7.98,1.81,2.36,1.2,4.22,2.91,5.59,5.1,1.36,2.2,2.05,4.8,2.05,7.81s-.68,5.55-2.05,7.78c-1.37,2.22-3.23,3.93-5.59,5.14-2.36,1.2-5.02,1.81-7.98,1.81h-13.47Z"></path><path class="cls-3" d="M677.08,384.16c-3.19,0-6.09-.76-8.68-2.29-2.59-1.53-4.65-3.6-6.18-6.21-1.53-2.61-2.29-5.54-2.29-8.78s.76-6.08,2.29-8.64c1.53-2.57,3.59-4.62,6.18-6.14,2.59-1.53,5.48-2.29,8.68-2.29s6.17.75,8.78,2.26c2.61,1.5,4.69,3.55,6.21,6.14,1.53,2.59,2.29,5.48,2.29,8.68s-.76,6.17-2.29,8.78c-1.53,2.62-3.6,4.69-6.21,6.21s-5.54,2.29-8.78,2.29ZM677.08,378.12c2.13,0,4-.49,5.62-1.46,1.62-.97,2.89-2.3,3.82-3.99.92-1.69,1.39-3.62,1.39-5.8s-.48-4.03-1.42-5.69c-.95-1.67-2.22-2.97-3.82-3.92-1.6-.95-3.46-1.42-5.59-1.42s-3.87.47-5.49,1.42c-1.62.95-2.89,2.26-3.82,3.92-.93,1.67-1.39,3.57-1.39,5.69s.46,4.11,1.39,5.8c.92,1.69,2.2,3.02,3.82,3.99,1.62.97,3.45,1.46,5.49,1.46Z"></path><path class="cls-3" d="M709.71,383.47l-12.98-32.98h6.53l9.44,25.69h-2.08l9.37-25.69h3.61l9.37,25.69h-2.08l9.44-25.69h6.53l-12.98,32.98h-3.68l-9.51-24.85h2.29l-9.58,24.85h-3.68Z"></path><path class="cls-3" d="M766.71,384.16c-3.33,0-6.31-.75-8.92-2.26-2.62-1.5-4.69-3.55-6.21-6.14-1.53-2.59-2.29-5.53-2.29-8.82s.75-6.16,2.26-8.75c1.5-2.59,3.54-4.64,6.11-6.14,2.57-1.5,5.45-2.26,8.64-2.26,3.01,0,5.69.69,8.05,2.08,2.36,1.39,4.2,3.31,5.52,5.76,1.32,2.45,1.98,5.25,1.98,8.4,0,.46-.02.96-.07,1.49-.05.53-.14,1.12-.28,1.77h-27.84v-5.21h24.51l-2.29,2.01c0-2.22-.39-4.11-1.18-5.66-.79-1.55-1.9-2.75-3.33-3.61-1.43-.86-3.17-1.28-5.21-1.28s-4,.46-5.62,1.39c-1.62.93-2.87,2.22-3.75,3.89-.88,1.67-1.32,3.63-1.32,5.9s.46,4.34,1.39,6.07c.92,1.74,2.24,3.08,3.96,4.03,1.71.95,3.68,1.42,5.9,1.42,1.85,0,3.55-.32,5.1-.97,1.55-.65,2.88-1.62,3.99-2.92l4.03,4.1c-1.62,1.85-3.56,3.26-5.83,4.24-2.27.97-4.7,1.46-7.29,1.46Z"></path><path class="cls-3" d="M788.65,383.47v-32.98h6.25v32.98h-6.25ZM794.89,364.73l-2.36-1.11c0-4.21.97-7.57,2.92-10.07,1.94-2.5,4.74-3.75,8.4-3.75,1.67,0,3.17.29,4.51.87,1.34.58,2.59,1.54,3.75,2.88l-4.1,4.24c-.69-.74-1.46-1.27-2.29-1.6-.83-.32-1.81-.49-2.92-.49-2.31,0-4.21.74-5.69,2.22s-2.22,3.75-2.22,6.8Z"></path><path class="cls-3" d="M830.72,384.16c-3.33,0-6.31-.75-8.92-2.26-2.62-1.5-4.69-3.55-6.21-6.14-1.53-2.59-2.29-5.53-2.29-8.82s.75-6.16,2.26-8.75c1.5-2.59,3.54-4.64,6.11-6.14,2.57-1.5,5.45-2.26,8.64-2.26,3.01,0,5.69.69,8.05,2.08,2.36,1.39,4.2,3.31,5.52,5.76,1.32,2.45,1.98,5.25,1.98,8.4,0,.46-.02.96-.07,1.49-.05.53-.14,1.12-.28,1.77h-27.84v-5.21h24.51l-2.29,2.01c0-2.22-.39-4.11-1.18-5.66-.79-1.55-1.9-2.75-3.33-3.61-1.43-.86-3.17-1.28-5.21-1.28s-4,.46-5.62,1.39c-1.62.93-2.87,2.22-3.75,3.89-.88,1.67-1.32,3.63-1.32,5.9s.46,4.34,1.39,6.07c.92,1.74,2.24,3.08,3.96,4.03,1.71.95,3.68,1.42,5.9,1.42,1.85,0,3.55-.32,5.1-.97,1.55-.65,2.88-1.62,3.99-2.92l4.03,4.1c-1.62,1.85-3.56,3.26-5.83,4.24-2.27.97-4.7,1.46-7.29,1.46Z"></path><path class="cls-3" d="M866.54,384.16c-3.01,0-5.72-.75-8.12-2.26-2.41-1.5-4.32-3.55-5.73-6.14-1.41-2.59-2.12-5.51-2.12-8.75s.71-6.15,2.12-8.75c1.41-2.59,3.32-4.65,5.73-6.18,2.41-1.53,5.11-2.29,8.12-2.29,2.5,0,4.74.52,6.73,1.56,1.99,1.04,3.6,2.48,4.83,4.3,1.23,1.83,1.91,3.95,2.05,6.35v9.93c-.14,2.36-.81,4.47-2.01,6.32-1.2,1.85-2.8,3.3-4.79,4.34-1.99,1.04-4.26,1.56-6.8,1.56ZM867.58,378.26c2.08,0,3.91-.49,5.49-1.46,1.57-.97,2.8-2.3,3.68-3.99.88-1.69,1.32-3.62,1.32-5.8s-.44-4.18-1.32-5.87c-.88-1.69-2.11-3.02-3.68-3.99-1.57-.97-3.4-1.46-5.49-1.46s-3.91.47-5.48,1.42c-1.57.95-2.81,2.27-3.71,3.96-.9,1.69-1.35,3.65-1.35,5.87s.45,4.19,1.35,5.9c.9,1.71,2.15,3.04,3.75,3.99,1.6.95,3.41,1.42,5.45,1.42ZM883.97,383.47h-6.32v-8.89l1.18-8.05-1.18-7.98v-24.65h6.32v49.57Z"></path><path class="cls-3" d="M908.54,383.47v-48.18h6.53v48.18h-6.53ZM912.92,364.73v-5.69h13.12c1.81,0,3.41-.37,4.82-1.11,1.41-.74,2.52-1.78,3.33-3.12.81-1.34,1.21-2.94,1.21-4.79s-.41-3.45-1.21-4.79c-.81-1.34-1.92-2.38-3.33-3.12-1.41-.74-3.02-1.11-4.82-1.11h-13.12v-5.69h13.47c2.96,0,5.62.6,7.98,1.81,2.36,1.2,4.22,2.91,5.59,5.1,1.36,2.2,2.05,4.8,2.05,7.81s-.68,5.55-2.05,7.78c-1.37,2.22-3.23,3.93-5.59,5.14-2.36,1.2-5.02,1.81-7.98,1.81h-13.47Z"></path><path class="cls-3" d="M949.5,383.47v-32.98h6.25v32.98h-6.25ZM955.75,364.73l-2.36-1.11c0-4.21.97-7.57,2.92-10.07,1.94-2.5,4.74-3.75,8.4-3.75,1.67,0,3.17.29,4.51.87,1.34.58,2.59,1.54,3.75,2.88l-4.1,4.24c-.69-.74-1.46-1.27-2.29-1.6-.83-.32-1.81-.49-2.92-.49-2.31,0-4.21.74-5.69,2.22s-2.22,3.75-2.22,6.8Z"></path><path class="cls-3" d="M991.58,384.16c-3.33,0-6.31-.75-8.92-2.26-2.62-1.5-4.69-3.55-6.21-6.14-1.53-2.59-2.29-5.53-2.29-8.82s.75-6.16,2.26-8.75c1.5-2.59,3.54-4.64,6.11-6.14,2.57-1.5,5.45-2.26,8.64-2.26,3.01,0,5.69.69,8.05,2.08,2.36,1.39,4.2,3.31,5.52,5.76,1.32,2.45,1.98,5.25,1.98,8.4,0,.46-.02.96-.07,1.49-.05.53-.14,1.12-.28,1.77h-27.84v-5.21h24.51l-2.29,2.01c0-2.22-.39-4.11-1.18-5.66-.79-1.55-1.9-2.75-3.33-3.61-1.43-.86-3.17-1.28-5.21-1.28s-4,.46-5.62,1.39c-1.62.93-2.87,2.22-3.75,3.89-.88,1.67-1.32,3.63-1.32,5.9s.46,4.34,1.39,6.07c.92,1.74,2.24,3.08,3.96,4.03,1.71.95,3.68,1.42,5.9,1.42,1.85,0,3.55-.32,5.1-.97,1.55-.65,2.88-1.62,3.99-2.92l4.03,4.1c-1.62,1.85-3.56,3.26-5.83,4.24-2.27.97-4.7,1.46-7.29,1.46Z"></path><path class="cls-3" d="M1028.58,384.16c-3.24,0-6.17-.76-8.78-2.29-2.62-1.53-4.68-3.6-6.18-6.21-1.5-2.61-2.26-5.52-2.26-8.71s.75-6.16,2.26-8.75c1.5-2.59,3.56-4.64,6.18-6.14,2.61-1.5,5.54-2.26,8.78-2.26,2.54,0,4.9.47,7.08,1.42,2.18.95,4.05,2.33,5.62,4.13l-4.17,4.17c-1.02-1.2-2.27-2.12-3.75-2.74-1.48-.63-3.08-.94-4.79-.94-2.08,0-3.93.47-5.55,1.42-1.62.95-2.89,2.26-3.82,3.92-.93,1.67-1.39,3.59-1.39,5.76s.46,4.1,1.39,5.76c.92,1.67,2.2,2.99,3.82,3.96,1.62.97,3.47,1.46,5.55,1.46,1.76,0,3.37-.31,4.82-.94,1.46-.63,2.72-1.54,3.78-2.74l4.1,4.16c-1.53,1.76-3.39,3.13-5.59,4.1-2.2.97-4.57,1.46-7.12,1.46Z"></path><path class="cls-3" d="M1050.66,343.9c-1.16,0-2.11-.38-2.85-1.15-.74-.76-1.11-1.72-1.11-2.88s.37-2.05,1.11-2.81c.74-.76,1.69-1.15,2.85-1.15s2.11.38,2.85,1.15,1.11,1.7,1.11,2.81-.37,2.12-1.11,2.88c-.74.76-1.69,1.15-2.85,1.15ZM1047.46,383.47v-32.98h6.32v32.98h-6.32Z"></path><path class="cls-3" d="M1073.5,384.16c-1.85,0-3.61-.24-5.28-.73-1.67-.49-3.18-1.18-4.55-2.08-1.37-.9-2.56-1.98-3.58-3.23l4.03-4.03c1.2,1.48,2.59,2.58,4.16,3.3,1.57.72,3.33,1.08,5.28,1.08s3.45-.34,4.51-1.01c1.06-.67,1.6-1.61,1.6-2.81s-.43-2.14-1.28-2.81c-.86-.67-1.96-1.23-3.3-1.67-1.34-.44-2.77-.87-4.27-1.29-1.5-.42-2.93-.97-4.27-1.67-1.34-.69-2.44-1.65-3.3-2.88s-1.28-2.84-1.28-4.83.47-3.71,1.42-5.17c.95-1.46,2.3-2.58,4.06-3.37,1.76-.79,3.86-1.18,6.32-1.18,2.59,0,4.89.45,6.91,1.35,2.01.9,3.67,2.26,4.96,4.06l-4.03,4.03c-.97-1.2-2.13-2.13-3.47-2.78-1.34-.65-2.87-.97-4.58-.97-1.81,0-3.18.32-4.13.97-.95.65-1.42,1.5-1.42,2.57s.42,1.97,1.25,2.57c.83.6,1.93,1.11,3.3,1.53,1.36.42,2.79.85,4.27,1.29,1.48.44,2.89,1.03,4.24,1.77,1.34.74,2.44,1.74,3.3,2.99.86,1.25,1.28,2.89,1.28,4.93,0,3.1-1.1,5.55-3.3,7.36-2.2,1.8-5.15,2.71-8.85,2.71Z"></path><path class="cls-3" d="M1095.85,343.9c-1.16,0-2.11-.38-2.85-1.15-.74-.76-1.11-1.72-1.11-2.88s.37-2.05,1.11-2.81c.74-.76,1.69-1.15,2.85-1.15s2.11.38,2.85,1.15,1.11,1.7,1.11,2.81-.37,2.12-1.11,2.88-1.69,1.15-2.85,1.15ZM1092.66,383.47v-32.98h6.32v32.98h-6.32Z"></path><path class="cls-3" d="M1123.21,384.16c-3.19,0-6.09-.76-8.68-2.29-2.59-1.53-4.65-3.6-6.18-6.21-1.53-2.61-2.29-5.54-2.29-8.78s.76-6.08,2.29-8.64c1.53-2.57,3.59-4.62,6.18-6.14,2.59-1.53,5.48-2.29,8.68-2.29s6.17.75,8.78,2.26c2.61,1.5,4.69,3.55,6.21,6.14s2.29,5.48,2.29,8.68-.76,6.17-2.29,8.78c-1.53,2.62-3.6,4.69-6.21,6.21-2.61,1.53-5.54,2.29-8.78,2.29ZM1123.21,378.12c2.13,0,4-.49,5.62-1.46,1.62-.97,2.89-2.3,3.82-3.99.92-1.69,1.39-3.62,1.39-5.8s-.48-4.03-1.42-5.69c-.95-1.67-2.22-2.97-3.82-3.92-1.6-.95-3.46-1.42-5.59-1.42s-3.87.47-5.49,1.42c-1.62.95-2.89,2.26-3.82,3.92-.93,1.67-1.39,3.57-1.39,5.69s.46,4.11,1.39,5.8c.92,1.69,2.2,3.02,3.82,3.99,1.62.97,3.45,1.46,5.49,1.46Z"></path><path class="cls-3" d="M1147.43,383.47v-32.98h6.25v32.98h-6.25ZM1170.69,383.47v-19.23c0-2.5-.78-4.56-2.33-6.18-1.55-1.62-3.58-2.43-6.08-2.43-1.67,0-3.15.37-4.44,1.11-1.3.74-2.31,1.76-3.05,3.05-.74,1.3-1.11,2.78-1.11,4.44l-2.57-1.46c0-2.5.56-4.72,1.67-6.66,1.11-1.94,2.66-3.48,4.65-4.62,1.99-1.13,4.24-1.7,6.73-1.7s4.71.63,6.63,1.87c1.92,1.25,3.44,2.88,4.55,4.89,1.11,2.01,1.67,4.15,1.67,6.42v20.48h-6.32Z"></path><path class="cls-3" d="M1222.9,384.16c-3.42,0-6.62-.64-9.58-1.91-2.96-1.27-5.55-3.05-7.78-5.35-2.22-2.29-3.96-4.94-5.21-7.95-1.25-3.01-1.87-6.22-1.87-9.65s.63-6.7,1.87-9.69c1.25-2.98,2.97-5.61,5.17-7.88,2.2-2.27,4.77-4.03,7.71-5.28,2.94-1.25,6.12-1.87,9.55-1.87s6.61.62,9.55,1.87c2.94,1.25,5.52,3.01,7.74,5.28,2.22,2.27,3.96,4.91,5.21,7.92s1.87,6.25,1.87,9.72-.63,6.64-1.87,9.65c-1.25,3.01-2.97,5.65-5.17,7.91-2.2,2.27-4.77,4.04-7.71,5.31-2.94,1.27-6.1,1.91-9.48,1.91ZM1222.76,377.92c3.42,0,6.46-.8,9.1-2.4,2.64-1.6,4.71-3.79,6.21-6.6,1.5-2.8,2.26-6,2.26-9.61,0-2.68-.43-5.15-1.29-7.39-.86-2.24-2.07-4.2-3.64-5.87-1.57-1.67-3.43-2.95-5.55-3.85-2.13-.9-4.49-1.35-7.08-1.35-3.43,0-6.45.79-9.06,2.36-2.62,1.57-4.68,3.75-6.18,6.53-1.5,2.78-2.26,5.97-2.26,9.58,0,2.68.43,5.17,1.28,7.46.86,2.29,2.06,4.26,3.61,5.9,1.55,1.64,3.4,2.93,5.55,3.85,2.15.93,4.5,1.39,7.05,1.39Z"></path><path class="cls-3" d="M1254.97,383.47v-32.98h6.25v32.98h-6.25ZM1278.23,383.47v-19.23c0-2.5-.78-4.56-2.33-6.18-1.55-1.62-3.58-2.43-6.08-2.43-1.67,0-3.15.37-4.44,1.11-1.3.74-2.31,1.76-3.05,3.05-.74,1.3-1.11,2.78-1.11,4.44l-2.57-1.46c0-2.5.56-4.72,1.67-6.66s2.66-3.48,4.65-4.62c1.99-1.13,4.24-1.7,6.73-1.7s4.71.63,6.63,1.87c1.92,1.25,3.44,2.88,4.55,4.89,1.11,2.01,1.67,4.15,1.67,6.42v20.48h-6.32Z"></path><path class="cls-3" d="M1308.08,384.16c-3.24,0-6.17-.76-8.78-2.29-2.62-1.53-4.68-3.6-6.18-6.21-1.5-2.61-2.26-5.52-2.26-8.71s.75-6.16,2.26-8.75c1.5-2.59,3.56-4.64,6.18-6.14,2.61-1.5,5.54-2.26,8.78-2.26,2.54,0,4.9.47,7.08,1.42,2.18.95,4.05,2.33,5.62,4.13l-4.17,4.17c-1.02-1.2-2.27-2.12-3.75-2.74-1.48-.63-3.08-.94-4.79-.94-2.08,0-3.93.47-5.55,1.42-1.62.95-2.89,2.26-3.82,3.92-.93,1.67-1.39,3.59-1.39,5.76s.46,4.1,1.39,5.76c.92,1.67,2.2,2.99,3.82,3.96,1.62.97,3.47,1.46,5.55,1.46,1.76,0,3.37-.31,4.82-.94,1.46-.63,2.72-1.54,3.78-2.74l4.1,4.16c-1.53,1.76-3.39,3.13-5.59,4.1-2.2.97-4.57,1.46-7.12,1.46Z"></path><path class="cls-3" d="M1341.96,384.16c-3.19,0-6.09-.76-8.68-2.29-2.59-1.53-4.65-3.6-6.18-6.21-1.53-2.61-2.29-5.54-2.29-8.78s.76-6.08,2.29-8.64c1.53-2.57,3.59-4.62,6.18-6.14,2.59-1.53,5.48-2.29,8.68-2.29s6.17.75,8.78,2.26c2.61,1.5,4.69,3.55,6.21,6.14,1.53,2.59,2.29,5.48,2.29,8.68s-.76,6.17-2.29,8.78c-1.53,2.62-3.6,4.69-6.21,6.21s-5.54,2.29-8.78,2.29ZM1341.96,378.12c2.13,0,4-.49,5.62-1.46,1.62-.97,2.89-2.3,3.82-3.99.92-1.69,1.39-3.62,1.39-5.8s-.48-4.03-1.42-5.69c-.95-1.67-2.22-2.97-3.82-3.92-1.6-.95-3.46-1.42-5.59-1.42s-3.87.47-5.49,1.42c-1.62.95-2.89,2.26-3.82,3.92-.93,1.67-1.39,3.57-1.39,5.69s.46,4.11,1.39,5.8c.92,1.69,2.2,3.02,3.82,3.99,1.62.97,3.45,1.46,5.49,1.46Z"></path><path class="cls-3" d="M1366.19,383.47v-49.57h6.25v49.57h-6.25Z"></path><path class="cls-3" d="M1396.6,384.16c-3.19,0-6.09-.76-8.68-2.29-2.59-1.53-4.65-3.6-6.18-6.21-1.53-2.61-2.29-5.54-2.29-8.78s.76-6.08,2.29-8.64c1.53-2.57,3.59-4.62,6.18-6.14,2.59-1.53,5.48-2.29,8.68-2.29s6.17.75,8.78,2.26c2.61,1.5,4.69,3.55,6.21,6.14,1.53,2.59,2.29,5.48,2.29,8.68s-.76,6.17-2.29,8.78c-1.53,2.62-3.6,4.69-6.21,6.21s-5.54,2.29-8.78,2.29ZM1396.6,378.12c2.13,0,4-.49,5.62-1.46,1.62-.97,2.89-2.3,3.82-3.99.92-1.69,1.39-3.62,1.39-5.8s-.48-4.03-1.42-5.69c-.95-1.67-2.22-2.97-3.82-3.92-1.6-.95-3.46-1.42-5.59-1.42s-3.87.47-5.49,1.42c-1.62.95-2.89,2.26-3.82,3.92-.93,1.67-1.39,3.57-1.39,5.69s.46,4.11,1.39,5.8c.92,1.69,2.2,3.02,3.82,3.99,1.62.97,3.45,1.46,5.49,1.46Z"></path><path class="cls-3" d="M1434.51,382.92c-3.01,0-5.71-.72-8.09-2.15-2.38-1.43-4.27-3.41-5.66-5.94-1.39-2.52-2.08-5.36-2.08-8.5s.68-5.96,2.05-8.44c1.36-2.48,3.25-4.44,5.66-5.9,2.41-1.46,5.09-2.19,8.05-2.19,2.59,0,4.89.51,6.91,1.53,2.01,1.02,3.6,2.44,4.76,4.27,1.16,1.83,1.81,3.97,1.94,6.42v8.75c-.14,2.41-.8,4.52-1.98,6.35s-2.77,3.25-4.76,4.27c-1.99,1.02-4.26,1.53-6.8,1.53ZM1434.51,397.98c-3.43,0-6.43-.63-9.03-1.87-2.59-1.25-4.7-3.01-6.32-5.28l4.1-4.1c1.34,1.71,2.94,3.02,4.79,3.92,1.85.9,4.05,1.35,6.6,1.35,3.33,0,5.99-.89,7.98-2.67,1.99-1.78,2.99-4.18,2.99-7.19v-8.19l1.11-7.43-1.11-7.36v-8.68h6.25v31.66c0,3.15-.73,5.91-2.19,8.3-1.46,2.38-3.5,4.24-6.11,5.55-2.62,1.32-5.64,1.98-9.06,1.98ZM1435.69,377.01c2.08,0,3.89-.44,5.42-1.32,1.53-.88,2.72-2.12,3.58-3.71.86-1.6,1.28-3.46,1.28-5.59s-.43-3.99-1.28-5.59c-.86-1.6-2.06-2.85-3.61-3.75-1.55-.9-3.34-1.35-5.38-1.35s-3.91.45-5.48,1.35c-1.57.9-2.81,2.15-3.71,3.75-.9,1.6-1.35,3.44-1.35,5.52s.45,3.93,1.35,5.55c.9,1.62,2.15,2.88,3.75,3.78,1.6.9,3.41,1.35,5.45,1.35Z"></path><path class="cls-3" d="M1471.79,383.75l-14.3-33.26h6.94l10.62,26.03h-2.22l11.18-26.03h6.94l-15.41,33.26h-3.75ZM1462.34,397.29l9.65-19.93,3.54,6.39-6.25,13.54h-6.94Z"></path></g></g><g><path class="cls-3" d="M1523.13,43.63v-3.59h19.53v3.59h-19.53ZM1530.92,63.97v-23.26h3.93v23.26h-3.93Z"></path><path class="cls-3" d="M1546.07,63.97v-23.94h2.73l9.95,16.38h-1.78l9.95-16.38h2.74v23.94h-3.93v-17.03l.89.24-7.39,12.14h-2.74l-7.39-12.14.89-.24v17.03h-3.93Z"></path></g><g class="cls-10"><g><path class="cls-7" d="M-.88,219.06c-1.09,100.81,70.75,161.84,82.63,171.58,55.5,45.49,115.83,47.72,137.31,48.19,22.96.5,77.43.93,129.47-35.93,56.8-40.23,92.6-112.05,90.47-183.83C435.46,99.67,327.62,1.18,219.06-.71c-84.86-1.48-143.76,57.02-153.46,66.96C51.03,81.17.03,135-.88,219.06Z"></path><path class="cls-8" d="M93.53,334.94c-2.63-14.75-5.26-29.5-7.89-44.25-1.83-5.99-4.08-14.72-5.41-25.53-.45-3.68-.86-6.98-.93-11.33-.11-6.59-.19-18.99,6.17-32.55,4.64-9.89,11.1-16.4,15.4-19.4,3.37-2.35,7.01-3.85,7.01-3.85,3.31-1.36,5.87-1.84,7.62-2.16,3.12-.56,4.61-.45,5.84-.16,1.28.3,2.29.78,2.95,1.15,4.59-.09,9.94-.42,15.89-1.21,2.61-.35,9.03-1.23,17.35-3.41,8.32-2.18,15.61-4.9,21.79-7.64,2.81-1.35,6.92-3.67,11.12-7.53,4.97-4.56,10.54-9.6,10.98-16.98.4-6.58-3.34-12.16-6.03-16.16-2.97-4.43-4.42-4.62-11.06-13.01-4.77-6.03-5.47-7.76-5.85-8.89-2.01-6.02-.47-11.65.4-14.65.81-2.82,1.61-4.21,8.14-14.95,6.06-9.99,6.86-11.25,7.48-14.05.39-1.76,2.28-10.27-2-15.12-.13-.15-.26-.28-.42-.42-3.5-3.08-6.9-3.31-10.35-4.52-1.98-.69-6.87-2.4-7.85-5.47-1.8-5.63,10.39-13.04,9.34-14.62-1-1.5-12.43,4.37-19.61,8.92,0,0-7.17,4.54-12.87,10.74-.44.48-.84.96-.84.96-1.47,1.78-6.83,8.46-7.72,18.14-.18,1.99.03,4.35.08,5.23.18,3.29.49,4.27.56,6.32.09,2.85-.38,4.92-.94,7.42-.46,2.04-2.16,8.89-7.43,16.4-.87,1.24-1.57,2.12-2.08,2.75-4.3,5.36-8.4,8.64-10.22,10.07-9.32,7.31-17.97,12.7-24.27,17.87-8.63,7.08-13.5,14.3-17.9,20.81-3.19,4.73-12.47,19.21-17.62,40.68-4.62,19.24-3.57,34.54-2.78,45.14.73,9.75,2.22,27.55,11.08,48.51,7.03,16.63,15.98,28.8,22.88,36.77Z"></path><path class="cls-4" d="M365.77,357.1c-6.16,3.58-9.39,5.26-12.25,6.66-3.36,1.64-7.25,3.39-11.61,5.1-11.07,4.33-20.36,6.49-26.6,7.92-2.5.57-7.3,1.66-13.32,2.62-6.75,1.08-19.18,2.99-34.77,2.05-10.1-.61-23.34-1.52-38.9-8.16-9.54-4.07-16.76-8.94-21.5-12.55-3.32-2.14-8.06-5.27-13.69-9.2-9.54-6.67-14.29-10.04-17.64-13.47-7.02-7.17-10.7-14.16-12.87-18.36-3.43-6.64-4.38-10.7-4.78-12.89-.28-1.48-.82-4.93-.62-9.39.42-9.81,3.96-11.62,3.52-19.45-.28-5.02-1.98-8.83-2.86-10.76-2.42-5.29-5.62-8.53-6.95-9.86-1.11-1.1-2.25-2.04-2.99-2.65-2.66-2.21-4.71-3.55-6.24-4.57-2.21-1.48-6.32-4.25-9.58-6.97-.88-.73-5.37-4.49-7.48-7.68-5.91-8.88.02-23.27,1.45-26.54.58-2.91,1.33-8.8-1.8-12.09-5.17-5.44-17.4.04-23.35,3.61-14.43,8.66-18.93,26.28-20.46,31.91-.99,3.62-1.51,7.04-1.51,7.04-.93,6.08-.75,11.02-.51,17.52.05,1.48.14,2.96.28,4.6.17,1.92.38,3.55.57,4.82.39,3.26,1.11,8.27,2.48,14.31,1.9,8.4,2.91,9.17,4.64,17.58.95,4.63,2.21,12.7,2.59,16.88.33,3.62.3,5.54.68,7.89,0,0,0,0,0,0,.64,3.53.72,6.24.75,6.64.36,6.52,16.77,21.94,18.67,23.71h0c5.8,5.17,13.45,11.5,22.9,18.05,16.03,11.13,29.29,17.4,32.39,18.85,5,2.33,20.9,9.49,42.78,14.34,31.13,6.9,58.48,5.58,76.75,3.17,25.53-3.36,58.18-7.61,89.65-32.06,36.69-28.51,50.44-67.88,55.37-85.51-3.16,9.17-9.49,23.6-22.36,37.42-7.71,8.29-15.6,14.04-21.98,17.93-7.52,4.85-13.95,8.71-18.85,11.56Z"></path><path class="cls-6" d="M386.71,339.08c-27.25,19.49-54.67,22.1-74.94,24.57-19.58,2.38-31.6.68-39.23-.95-17.3-3.7-29.26-10.88-36.72-15.43-8.49-5.17-19.67-12.12-30.38-25.41-2.25-2.79-12.59-15.92-19.11-36.87-2.51-8.05-4.22-16.52-5.7-45.32-.73-14.05-1.39-32.79-1.31-55.09-7.53,3.34-17.07,6.8-28.37,9.2-10.07,2.14-19.12,2.92-26.66,3.07.73,1.72,1.59,4.32,1.72,7.51.21,5.29-1.78,7.11-3.1,14.14-1.37,7.26-.88,10.84-.21,13.02.26.84.81,2.63,2.16,4.55.31.44.88,1.19,3.25,3.44,2.27,2.16,3.72,3.38,3.72,3.38,6.64,5.58,11.27,8.79,11.27,8.79,9.5,7.28,10.51,8.49,11.27,9.5,0,0,4.74,6.13,5.92,14.63,1.04,7.44-1.95,12-3.3,18.15-2.4,10.92,1.76,20.39,6.34,30.81,11.17,25.42,38.59,39.57,46.76,43.66,46.83,23.47,105.84,19.89,150.66-3.7,34.43-18.12,52.93-43.98,57.9-52.4,4.22-7.16,7.65-15.19,7.65-15.19.57-1.72,1.65-3.89,2.67-6.93.88-2.62,1.47-4.77,2.47-8.45.64-2.36,1.08-4.1,1.3-5,.04-.16.52-2.12,1.01-4.28,1.66-7.39,2.75-14.33,2.75-14.33.1-.66.87-5.53,1.43-10.83.25-2.33.43-4.46.45-4.74.05-.61.18-2.17.29-3.92.02-.35.09-1.41.09-1.41,0,0,0,.11,0,.11-2.5,37.64-16.73,63.09-16.73,63.09-12.21,21.85-28.83,34.01-35.3,38.64Z"></path><path class="cls-5" d="M414.68,320.46c6.13-10.59,10.34-19.91,13.08-26.55-1.58,5.43-4.07,12.96-7.94,21.63-2.86,6.42-5.42,11.06-8.1,15.92-5.1,9.23-10.57,18.03-14.21,23.3-19.63,28.44-51.78,49.65-53.64,50.86-6.73,4.37-22.01,13.73-43.37,21.38-9.74,3.49-59.26,20.41-122.98,7.65-11.98-2.4-35.38-7.27-62.58-21.77-10.38-5.53-58.13-32.1-89.63-89.93C7.26,289.82,2.4,260.85,1.16,252.55c-1.63-10.89-5.29-41.37,3.59-79.06,1.42-6.02,12.07-49.25,44.66-89.16,11.83-14.49,24.18-25.64,29.8-30.52,14.9-12.94,27.6-20.99,31.8-23.59,5.23-3.23,14.06-8.66,26.49-14.14,14.67-6.47,35.51-13.55,60.88-15.97,5.75-.55,10.52-.74,13.69-.82,1.06.41,2.51,1.1,4.03,2.26.92.7,3.71,2.98,5.33,6.84.25.59,2.87,7.13-.04,13.47-2.93,6.37-9.62,8.57-17,10.99-1.7.56-3.05.91-4.25,1.17-5.2,1.11-9.06,1.67-9.83,1.76-4.71.57-10.42,3.77-19.87,10.91-13.5,10.19-20.25,15.29-22.69,19.79-6.14,11.34.91,15.15-4.61,31.22-4.93,14.36-14.78,23.6-18.42,26.95-5.57,5.11-6.03,3.87-15.03,10.69-6.02,4.55-18.09,13.83-28.68,28.74-3.69,5.19-8.42,12.8-12.54,22.86-3.97,10.47-8.62,26.49-8.74,46.39,0,1.25-.02,5.82.47,11.81,3.44,42.19,22.26,73.55,22.26,73.55,15.52,25.86,34.82,39.81,48.38,49.62,9.36,6.77,33.98,23.36,70.15,32.92,11.75,3.1,50.16,12.24,96.23,3.42,19.11-3.66,32.63-9.09,36.95-10.89,9.06-3.77,25.32-10.69,42.37-25.04,19.93-16.77,30.33-34.75,38.13-48.25Z"></path></g></g></g></g></svg>